<svg width="207" height="36" viewBox="0 0 207 36" fill="none" xmlns="http://www.w3.org/2000/svg">
<mask id="path-1-inside-1" fill="white">
<path d="M7.87026 0C9.22659 0 10.5056 0.155609 11.7072 0.466829C13.3253 0.886976 14.1343 1.78173 14.1343 3.1511C14.1343 3.60237 14.0511 3.94471 13.8845 4.17812C13.7298 4.39598 13.3253 4.72276 12.6709 5.15847C12.1237 5.51637 11.7608 6.3022 11.5823 7.51596C11.4157 8.72971 11.3325 11.095 11.3325 14.6118C11.3325 20.5561 11.4455 24.2362 11.6715 25.6523C11.7548 26.1036 11.8798 26.4537 12.0463 26.7026C12.2248 26.9361 12.5282 27.1928 12.9565 27.4729C13.7417 27.9397 14.1343 28.6167 14.1343 29.5036C14.1343 30.7485 13.4086 31.6044 11.9571 32.0712C10.3866 32.5691 8.46514 32.8181 6.1927 32.8181C2.31408 32.8181 0.374774 31.8533 0.374774 29.9238C0.374774 29.2235 0.755497 28.57 1.51694 27.9631C2.09993 27.4963 2.44496 26.8583 2.55203 26.0491C2.77809 24.2751 2.89112 20.5094 2.89112 14.7518C2.89112 10.7682 2.73645 8.2162 2.42711 7.09581C2.26054 6.45781 1.86197 5.88205 1.2314 5.36854C0.7436 4.94839 0.416416 4.59827 0.24985 4.31817C0.0832831 4.03808 0 3.68017 0 3.24447C0 2.57534 0.243901 2.04627 0.731702 1.65724C1.2314 1.25266 2.10588 0.894756 3.35512 0.583536C4.84232 0.194512 6.34737 0 7.87026 0Z"/>
<path d="M34.6399 9.10318C36.7576 9.10318 38.6256 9.79564 40.2436 11.1806C41.7784 12.5033 42.5458 14.1449 42.5458 16.1056C42.5458 17.4594 42.1889 18.5565 41.475 19.3968C40.8088 20.1904 40.0057 20.5872 39.0658 20.5872C38.0783 20.5872 37.3347 20.1204 36.835 19.1867C36.6803 18.891 36.4542 18.1363 36.1568 16.9226C35.8356 15.6154 35.2228 14.9619 34.3186 14.9619C33.6643 14.9619 33.111 15.3354 32.6589 16.0823C32.2187 16.8292 31.9986 17.7473 31.9986 18.8366C31.9986 20.7039 32.5102 22.3611 33.5334 23.8083C34.3662 24.9754 35.4132 25.5589 36.6743 25.5589C37.2692 25.5589 37.7689 25.4967 38.1734 25.3722C38.578 25.2321 39.1074 24.9598 39.7618 24.5552C39.9283 24.4463 40.1128 24.3918 40.315 24.3918C40.7195 24.3918 41.0765 24.6408 41.3858 25.1388C41.6951 25.6367 41.8498 26.2203 41.8498 26.8894C41.8498 27.5896 41.6297 28.3288 41.1895 29.1068C40.7493 29.8693 40.1722 30.5384 39.4584 31.1142C37.9117 32.3591 36.0854 32.9815 33.9795 32.9815C31.5286 32.9815 29.4406 32.0479 27.7155 30.1805C25.5025 27.8153 24.396 24.8042 24.396 21.1474C24.396 17.6306 25.4252 14.7207 27.4834 12.4177C29.4466 10.208 31.832 9.10318 34.6399 9.10318Z"/>
<path d="M53.8961 9.07983C55.9663 9.07983 57.7212 9.76452 59.1608 11.1339C59.9223 11.8653 60.4517 12.7055 60.7491 13.6548C61.0585 14.5884 61.2131 15.88 61.2131 17.5294L61.1774 21.0073C61.1774 23.4193 61.3083 24.9832 61.5701 25.699C61.7009 26.0413 61.8259 26.2592 61.9448 26.3525C62.0638 26.4459 62.3137 26.5315 62.6944 26.6093C63.0751 26.6871 63.2655 27.0139 63.2655 27.5896C63.2655 28.3366 63.0335 29.1146 62.5695 29.9238C62.1174 30.7329 61.5284 31.4099 60.8027 31.9545C59.9104 32.6392 58.9764 32.9815 58.0008 32.9815C56.7515 32.9815 55.764 32.4213 55.0383 31.3009C54.7884 30.8963 54.5564 30.694 54.3423 30.694C54.1043 30.694 53.789 30.8886 53.3964 31.2776C52.2067 32.4135 50.8563 32.9815 49.3453 32.9815C47.7867 32.9815 46.5256 32.5458 45.5619 31.6744C44.9313 31.0986 44.4316 30.3517 44.0628 29.4336C43.6939 28.4999 43.5095 27.5274 43.5095 26.5159C43.5095 24.8976 44.0092 23.466 45.0086 22.2211C46.5672 20.2604 48.8991 19.2723 52.0044 19.2567C52.6945 19.2567 53.1287 19.1711 53.3072 19C53.4857 18.8132 53.5749 18.3931 53.5749 17.7395C53.5749 16.0901 53.444 14.8996 53.1823 14.1683C52.9205 13.4213 52.4922 13.0479 51.8973 13.0479C51.5404 13.0479 51.2192 13.1879 50.9336 13.468C50.66 13.7481 50.3149 14.2616 49.8985 15.0086C48.8396 16.9848 47.7332 17.9729 46.5791 17.9729C45.9961 17.9729 45.5202 17.7473 45.1514 17.296C44.7826 16.8448 44.5981 16.2534 44.5981 15.5221C44.5981 14.7752 44.8242 14.0282 45.2763 13.2813C45.7403 12.5344 46.3649 11.8808 47.1502 11.3206C49.3036 9.82676 51.5523 9.07983 53.8961 9.07983ZM52.7004 22.5945C52.1769 22.5945 51.7189 22.8746 51.3262 23.4348C50.9455 23.995 50.7552 24.6642 50.7552 25.4422C50.7552 26.1891 50.892 26.796 51.1656 27.2628C51.4393 27.7141 51.8021 27.9398 52.2543 27.9398C53.2061 27.9398 53.682 26.8894 53.682 24.7887C53.682 23.9328 53.6106 23.357 53.4678 23.0614C53.3369 22.7657 53.0811 22.6101 52.7004 22.5945Z"/>
<path d="M72.7776 9.24323C73.4082 9.24323 73.7889 9.35993 73.9198 9.59335C74.0625 9.82676 74.1875 10.5737 74.2945 11.8341C74.354 12.5188 74.5384 12.8612 74.8478 12.8612C75.0857 12.8612 75.3118 12.6355 75.5259 12.1842C76.4778 10.2391 77.7211 9.26657 79.2558 9.26657C80.3385 9.26657 81.2249 9.72562 81.915 10.6437C82.2481 11.095 82.5217 11.6785 82.7359 12.3943C82.9501 13.0946 83.0571 13.7715 83.0571 14.425C83.0571 15.1564 82.9263 15.9111 82.6645 16.6892C82.4028 17.4516 82.0637 18.0819 81.6473 18.5798C80.8858 19.529 79.9519 20.0036 78.8454 20.0036C78.2386 20.0036 77.727 19.8636 77.3106 19.5835C76.9061 19.3034 76.3707 18.7354 75.7044 17.8796C75.4546 17.5528 75.2226 17.3894 75.0084 17.3894C74.6753 17.3894 74.4552 17.6384 74.3481 18.1363C74.2529 18.6187 74.2053 19.6457 74.2053 21.2174C74.2053 23.5671 74.2708 25.1699 74.4016 26.0257C74.4849 26.4926 74.5979 26.8194 74.7407 27.0061C74.8954 27.1773 75.2166 27.3562 75.7044 27.5429C76.7752 27.9631 77.3106 28.6945 77.3106 29.737C77.3106 30.375 77.1381 30.9352 76.793 31.4176C76.448 31.8845 75.99 32.1957 75.4189 32.3513C74.2767 32.6625 72.5991 32.8181 70.3862 32.8181C68.2803 32.8181 66.6801 32.5769 65.5855 32.0945C64.6099 31.6588 64.1221 30.9041 64.1221 29.8304C64.1221 29.0212 64.479 28.2976 65.1929 27.6597C65.5379 27.364 65.7759 27.0995 65.9067 26.866C66.0376 26.6171 66.1268 26.2825 66.1744 25.8624C66.3648 24.4463 66.46 21.8243 66.46 17.9963C66.46 17.296 66.4005 16.7981 66.2815 16.5024C66.1625 16.1912 65.9246 15.9422 65.5677 15.7555C64.7229 15.3198 64.3006 14.6896 64.3006 13.8648C64.3006 13.1179 64.5921 12.4799 65.175 11.9508C65.758 11.4062 66.7336 10.8693 68.1018 10.3403C69.9341 9.62447 71.4927 9.25879 72.7776 9.24323Z"/>
<path d="M100.1 21.8943H91.7126C91.3438 21.8943 91.1594 22.1044 91.1594 22.5245C91.1594 23.536 91.5758 24.493 92.4086 25.3955C93.2534 26.2825 94.1576 26.726 95.1213 26.726C95.6924 26.726 96.323 26.5859 97.013 26.3058C97.715 26.0102 98.292 25.6523 98.7441 25.2321C99.1486 24.8587 99.4699 24.6719 99.7078 24.6719C100.017 24.6719 100.321 24.9209 100.618 25.4189C100.915 25.9168 101.064 26.4303 101.064 26.9594C101.064 28.0798 100.529 29.1613 99.458 30.2039C97.5663 32.0556 95.383 32.9815 92.9083 32.9815C90.4098 32.9815 88.3159 32.0323 86.6264 30.1339C85.8055 29.2002 85.1273 28.072 84.5919 26.7493C83.89 24.9909 83.539 23.1392 83.539 21.1941C83.539 18.5798 84.1458 16.2301 85.3593 14.1449C86.4063 12.3399 87.7388 10.9938 89.3569 10.1069C90.5705 9.43774 91.8851 9.10318 93.301 9.10318C95.5615 9.10318 97.483 9.94347 99.0653 11.6241C99.8625 12.4643 100.505 13.4603 100.993 14.6118C101.552 15.9189 101.832 17.1949 101.832 18.4398C101.832 19.4512 101.671 20.2837 101.35 20.9373C101.028 21.5753 100.612 21.8943 100.1 21.8943ZM92.1766 17.5294H93.9791C94.7406 17.5294 95.1213 17.0704 95.1213 16.1523C95.1213 15.312 94.9369 14.6273 94.5681 14.0983C94.1992 13.5692 93.7174 13.3046 93.1225 13.3046C92.4562 13.3046 91.9327 13.647 91.552 14.3317C91.1951 14.9697 91.0166 15.6154 91.0166 16.269C91.0166 16.7358 91.0999 17.0626 91.2665 17.2494C91.4449 17.4361 91.7483 17.5294 92.1766 17.5294Z"/>
<path d="M122.319 9.07983C124.389 9.07983 126.144 9.76452 127.584 11.1339C128.345 11.8653 128.875 12.7055 129.172 13.6548C129.482 14.5884 129.636 15.88 129.636 17.5294L129.601 21.0073C129.601 23.4193 129.731 24.9832 129.993 25.699C130.124 26.0413 130.249 26.2592 130.368 26.3525C130.487 26.4459 130.737 26.5315 131.117 26.6093C131.498 26.6871 131.689 27.0139 131.689 27.5896C131.689 28.3366 131.457 29.1146 130.993 29.9238C130.54 30.7329 129.952 31.4099 129.226 31.9545C128.333 32.6392 127.399 32.9815 126.424 32.9815C125.175 32.9815 124.187 32.4213 123.461 31.3009C123.212 30.8963 122.98 30.694 122.765 30.694C122.527 30.694 122.212 30.8886 121.82 31.2776C120.63 32.4135 119.279 32.9815 117.768 32.9815C116.21 32.9815 114.949 32.5458 113.985 31.6744C113.354 31.0986 112.855 30.3517 112.486 29.4336C112.117 28.4999 111.933 27.5274 111.933 26.5159C111.933 24.8976 112.432 23.466 113.432 22.2211C114.99 20.2604 117.322 19.2723 120.427 19.2567C121.118 19.2567 121.552 19.1711 121.73 19C121.909 18.8132 121.998 18.3931 121.998 17.7395C121.998 16.0901 121.867 14.8996 121.605 14.1683C121.344 13.4213 120.915 13.0479 120.32 13.0479C119.963 13.0479 119.642 13.1879 119.357 13.468C119.083 13.7481 118.738 14.2616 118.322 15.0086C117.263 16.9848 116.156 17.9729 115.002 17.9729C114.419 17.9729 113.943 17.7473 113.574 17.296C113.206 16.8448 113.021 16.2534 113.021 15.5221C113.021 14.7752 113.247 14.0282 113.699 13.2813C114.163 12.5344 114.788 11.8808 115.573 11.3206C117.727 9.82676 119.975 9.07983 122.319 9.07983ZM121.123 22.5945C120.6 22.5945 120.142 22.8746 119.749 23.4348C119.369 23.995 119.178 24.6642 119.178 25.4422C119.178 26.1891 119.315 26.796 119.589 27.2628C119.862 27.7141 120.225 27.9398 120.677 27.9398C121.629 27.9398 122.105 26.8894 122.105 24.7887C122.105 23.9328 122.034 23.357 121.891 23.0614C121.76 22.7657 121.504 22.6101 121.123 22.5945Z"/>
<path d="M152.194 13.8415V21.3341C152.194 24.6486 152.23 26.5782 152.301 27.1228C152.384 27.6674 152.682 28.0876 153.193 28.3832C153.634 28.6322 153.925 28.8656 154.068 29.0835C154.223 29.3013 154.3 29.6126 154.3 30.0171C154.3 30.5307 154.157 30.9975 153.872 31.4176C153.598 31.8378 153.229 32.1334 152.765 32.3046C151.909 32.6469 150.463 32.8181 148.428 32.8181C146.132 32.8181 144.52 32.5925 143.592 32.1412C143.164 31.9389 142.813 31.6277 142.539 31.2076C142.266 30.7718 142.129 30.3206 142.129 29.8538C142.129 29.4803 142.2 29.1924 142.343 28.9901C142.498 28.7878 142.825 28.5466 143.324 28.2665C143.788 28.002 144.074 27.2784 144.181 26.0958C144.371 24.0728 144.467 21.1941 144.467 17.4594C144.467 13.6625 144.383 11.2195 144.217 10.1302C144.05 9.04093 143.634 8.23176 142.967 7.70269C142.468 7.32922 142.123 6.9791 141.932 6.65232C141.754 6.30998 141.665 5.89761 141.665 5.41522C141.665 4.65273 141.944 3.99139 142.503 3.4312C143.063 2.85544 143.955 2.32637 145.18 1.84398C146.001 1.5172 147.066 1.20598 148.375 0.910317C149.684 0.614659 150.635 0.466829 151.23 0.466829C152.17 0.466829 152.64 1.22932 152.64 2.75429C152.64 3.25225 152.581 4.39598 152.462 6.18549C152.307 8.97091 152.218 11.5229 152.194 13.8415Z"/>
<path d="M166.4 9.07983C168.577 9.07983 170.487 9.81898 172.128 11.2973C173.306 12.3554 174.252 13.7326 174.966 15.4287C175.704 17.2027 176.073 19.0544 176.073 20.984C176.073 24.3607 174.889 27.2317 172.521 29.597C170.261 31.8533 167.673 32.9815 164.758 32.9815C161.914 32.9815 159.612 31.9234 157.851 29.8071C156.138 27.753 155.282 25.0765 155.282 21.7776C155.282 18.1052 156.328 15.1019 158.422 12.7678C160.612 10.3092 163.271 9.07983 166.4 9.07983ZM164.972 14.4717C164.449 14.4717 164.026 14.7285 163.705 15.242C163.396 15.7399 163.241 16.4091 163.241 17.2494C163.241 18.183 163.372 19.459 163.634 21.0774C163.907 22.6801 164.229 24.104 164.597 25.3488C164.966 26.6248 165.567 27.2628 166.4 27.2628C167.459 27.2628 167.988 26.3837 167.988 24.6253C167.988 23.3181 167.851 21.8321 167.578 20.167C167.316 18.502 166.995 17.1482 166.614 16.1056C166.221 15.0475 165.674 14.5028 164.972 14.4717Z"/>
<path d="M187.441 15.2186V23.1081C187.441 24.0417 187.613 24.8042 187.958 25.3955C188.315 25.9868 188.767 26.2825 189.315 26.2825C189.779 26.2825 190.391 26.0024 191.153 25.4422C191.331 25.3022 191.51 25.2321 191.688 25.2321C191.974 25.2321 192.235 25.4578 192.473 25.909C192.711 26.3603 192.83 26.8505 192.83 27.3796C192.83 28.3443 192.426 29.2702 191.617 30.1572C189.927 32.0401 187.881 32.9815 185.478 32.9815C183.574 32.9815 182.045 32.2813 180.891 30.8808C179.737 29.4647 179.16 27.6052 179.16 25.3022V14.5184C179.16 14.1605 179.124 13.9426 179.053 13.8648C178.993 13.7715 178.827 13.7248 178.553 13.7248H176.715C176.37 13.7248 176.15 13.6548 176.055 13.5147C175.96 13.3591 175.912 13.009 175.912 12.4643V11.4373C175.924 10.9705 176.061 10.6282 176.322 10.4103L184.496 3.68795C184.698 3.5479 184.948 3.47788 185.246 3.47788H186.691C186.989 3.47788 187.185 3.57125 187.28 3.75798C187.387 3.92915 187.441 4.27927 187.441 4.80834V7.95944C187.441 8.42627 187.494 8.72971 187.601 8.86976C187.72 9.00981 187.964 9.07983 188.333 9.07983H191.635C192.075 9.07983 192.36 9.18876 192.491 9.40662C192.622 9.60891 192.688 10.0524 192.688 10.7371V12.1142C192.688 12.8612 192.604 13.3824 192.438 13.6781C192.271 13.9582 191.968 14.0983 191.528 14.0983H188.297C187.964 14.0983 187.738 14.1761 187.619 14.3317C187.5 14.4873 187.441 14.7829 187.441 15.2186Z"/>
</mask>
<path d="M7.87026 0C9.22659 0 10.5056 0.155609 11.7072 0.466829C13.3253 0.886976 14.1343 1.78173 14.1343 3.1511C14.1343 3.60237 14.0511 3.94471 13.8845 4.17812C13.7298 4.39598 13.3253 4.72276 12.6709 5.15847C12.1237 5.51637 11.7608 6.3022 11.5823 7.51596C11.4157 8.72971 11.3325 11.095 11.3325 14.6118C11.3325 20.5561 11.4455 24.2362 11.6715 25.6523C11.7548 26.1036 11.8798 26.4537 12.0463 26.7026C12.2248 26.9361 12.5282 27.1928 12.9565 27.4729C13.7417 27.9397 14.1343 28.6167 14.1343 29.5036C14.1343 30.7485 13.4086 31.6044 11.9571 32.0712C10.3866 32.5691 8.46514 32.8181 6.1927 32.8181C2.31408 32.8181 0.374774 31.8533 0.374774 29.9238C0.374774 29.2235 0.755497 28.57 1.51694 27.9631C2.09993 27.4963 2.44496 26.8583 2.55203 26.0491C2.77809 24.2751 2.89112 20.5094 2.89112 14.7518C2.89112 10.7682 2.73645 8.2162 2.42711 7.09581C2.26054 6.45781 1.86197 5.88205 1.2314 5.36854C0.7436 4.94839 0.416416 4.59827 0.24985 4.31817C0.0832831 4.03808 0 3.68017 0 3.24447C0 2.57534 0.243901 2.04627 0.731702 1.65724C1.2314 1.25266 2.10588 0.894756 3.35512 0.583536C4.84232 0.194512 6.34737 0 7.87026 0Z" fill="#A992C5"/>
<path d="M34.6399 9.10318C36.7576 9.10318 38.6256 9.79564 40.2436 11.1806C41.7784 12.5033 42.5458 14.1449 42.5458 16.1056C42.5458 17.4594 42.1889 18.5565 41.475 19.3968C40.8088 20.1904 40.0057 20.5872 39.0658 20.5872C38.0783 20.5872 37.3347 20.1204 36.835 19.1867C36.6803 18.891 36.4542 18.1363 36.1568 16.9226C35.8356 15.6154 35.2228 14.9619 34.3186 14.9619C33.6643 14.9619 33.111 15.3354 32.6589 16.0823C32.2187 16.8292 31.9986 17.7473 31.9986 18.8366C31.9986 20.7039 32.5102 22.3611 33.5334 23.8083C34.3662 24.9754 35.4132 25.5589 36.6743 25.5589C37.2692 25.5589 37.7689 25.4967 38.1734 25.3722C38.578 25.2321 39.1074 24.9598 39.7618 24.5552C39.9283 24.4463 40.1128 24.3918 40.315 24.3918C40.7195 24.3918 41.0765 24.6408 41.3858 25.1388C41.6951 25.6367 41.8498 26.2203 41.8498 26.8894C41.8498 27.5896 41.6297 28.3288 41.1895 29.1068C40.7493 29.8693 40.1722 30.5384 39.4584 31.1142C37.9117 32.3591 36.0854 32.9815 33.9795 32.9815C31.5286 32.9815 29.4406 32.0479 27.7155 30.1805C25.5025 27.8153 24.396 24.8042 24.396 21.1474C24.396 17.6306 25.4252 14.7207 27.4834 12.4177C29.4466 10.208 31.832 9.10318 34.6399 9.10318Z" fill="#A992C5"/>
<path d="M53.8961 9.07983C55.9663 9.07983 57.7212 9.76452 59.1608 11.1339C59.9223 11.8653 60.4517 12.7055 60.7491 13.6548C61.0585 14.5884 61.2131 15.88 61.2131 17.5294L61.1774 21.0073C61.1774 23.4193 61.3083 24.9832 61.5701 25.699C61.7009 26.0413 61.8259 26.2592 61.9448 26.3525C62.0638 26.4459 62.3137 26.5315 62.6944 26.6093C63.0751 26.6871 63.2655 27.0139 63.2655 27.5896C63.2655 28.3366 63.0335 29.1146 62.5695 29.9238C62.1174 30.7329 61.5284 31.4099 60.8027 31.9545C59.9104 32.6392 58.9764 32.9815 58.0008 32.9815C56.7515 32.9815 55.764 32.4213 55.0383 31.3009C54.7884 30.8963 54.5564 30.694 54.3423 30.694C54.1043 30.694 53.789 30.8886 53.3964 31.2776C52.2067 32.4135 50.8563 32.9815 49.3453 32.9815C47.7867 32.9815 46.5256 32.5458 45.5619 31.6744C44.9313 31.0986 44.4316 30.3517 44.0628 29.4336C43.6939 28.4999 43.5095 27.5274 43.5095 26.5159C43.5095 24.8976 44.0092 23.466 45.0086 22.2211C46.5672 20.2604 48.8991 19.2723 52.0044 19.2567C52.6945 19.2567 53.1287 19.1711 53.3072 19C53.4857 18.8132 53.5749 18.3931 53.5749 17.7395C53.5749 16.0901 53.444 14.8996 53.1823 14.1683C52.9205 13.4213 52.4922 13.0479 51.8973 13.0479C51.5404 13.0479 51.2192 13.1879 50.9336 13.468C50.66 13.7481 50.3149 14.2616 49.8985 15.0086C48.8396 16.9848 47.7332 17.9729 46.5791 17.9729C45.9961 17.9729 45.5202 17.7473 45.1514 17.296C44.7826 16.8448 44.5981 16.2534 44.5981 15.5221C44.5981 14.7752 44.8242 14.0282 45.2763 13.2813C45.7403 12.5344 46.3649 11.8808 47.1502 11.3206C49.3036 9.82676 51.5523 9.07983 53.8961 9.07983ZM52.7004 22.5945C52.1769 22.5945 51.7189 22.8746 51.3262 23.4348C50.9455 23.995 50.7552 24.6642 50.7552 25.4422C50.7552 26.1891 50.892 26.796 51.1656 27.2628C51.4393 27.7141 51.8021 27.9398 52.2543 27.9398C53.2061 27.9398 53.682 26.8894 53.682 24.7887C53.682 23.9328 53.6106 23.357 53.4678 23.0614C53.3369 22.7657 53.0811 22.6101 52.7004 22.5945Z" fill="#A992C5"/>
<path d="M72.7776 9.24323C73.4082 9.24323 73.7889 9.35993 73.9198 9.59335C74.0625 9.82676 74.1875 10.5737 74.2945 11.8341C74.354 12.5188 74.5384 12.8612 74.8478 12.8612C75.0857 12.8612 75.3118 12.6355 75.5259 12.1842C76.4778 10.2391 77.7211 9.26657 79.2558 9.26657C80.3385 9.26657 81.2249 9.72562 81.915 10.6437C82.2481 11.095 82.5217 11.6785 82.7359 12.3943C82.9501 13.0946 83.0571 13.7715 83.0571 14.425C83.0571 15.1564 82.9263 15.9111 82.6645 16.6892C82.4028 17.4516 82.0637 18.0819 81.6473 18.5798C80.8858 19.529 79.9519 20.0036 78.8454 20.0036C78.2386 20.0036 77.727 19.8636 77.3106 19.5835C76.9061 19.3034 76.3707 18.7354 75.7044 17.8796C75.4546 17.5528 75.2226 17.3894 75.0084 17.3894C74.6753 17.3894 74.4552 17.6384 74.3481 18.1363C74.2529 18.6187 74.2053 19.6457 74.2053 21.2174C74.2053 23.5671 74.2708 25.1699 74.4016 26.0257C74.4849 26.4926 74.5979 26.8194 74.7407 27.0061C74.8954 27.1773 75.2166 27.3562 75.7044 27.5429C76.7752 27.9631 77.3106 28.6945 77.3106 29.737C77.3106 30.375 77.1381 30.9352 76.793 31.4176C76.448 31.8845 75.99 32.1957 75.4189 32.3513C74.2767 32.6625 72.5991 32.8181 70.3862 32.8181C68.2803 32.8181 66.6801 32.5769 65.5855 32.0945C64.6099 31.6588 64.1221 30.9041 64.1221 29.8304C64.1221 29.0212 64.479 28.2976 65.1929 27.6597C65.5379 27.364 65.7759 27.0995 65.9067 26.866C66.0376 26.6171 66.1268 26.2825 66.1744 25.8624C66.3648 24.4463 66.46 21.8243 66.46 17.9963C66.46 17.296 66.4005 16.7981 66.2815 16.5024C66.1625 16.1912 65.9246 15.9422 65.5677 15.7555C64.7229 15.3198 64.3006 14.6896 64.3006 13.8648C64.3006 13.1179 64.5921 12.4799 65.175 11.9508C65.758 11.4062 66.7336 10.8693 68.1018 10.3403C69.9341 9.62447 71.4927 9.25879 72.7776 9.24323Z" fill="#A992C5"/>
<path d="M100.1 21.8943H91.7126C91.3438 21.8943 91.1594 22.1044 91.1594 22.5245C91.1594 23.536 91.5758 24.493 92.4086 25.3955C93.2534 26.2825 94.1576 26.726 95.1213 26.726C95.6924 26.726 96.323 26.5859 97.013 26.3058C97.715 26.0102 98.292 25.6523 98.7441 25.2321C99.1486 24.8587 99.4699 24.6719 99.7078 24.6719C100.017 24.6719 100.321 24.9209 100.618 25.4189C100.915 25.9168 101.064 26.4303 101.064 26.9594C101.064 28.0798 100.529 29.1613 99.458 30.2039C97.5663 32.0556 95.383 32.9815 92.9083 32.9815C90.4098 32.9815 88.3159 32.0323 86.6264 30.1339C85.8055 29.2002 85.1273 28.072 84.5919 26.7493C83.89 24.9909 83.539 23.1392 83.539 21.1941C83.539 18.5798 84.1458 16.2301 85.3593 14.1449C86.4063 12.3399 87.7388 10.9938 89.3569 10.1069C90.5705 9.43774 91.8851 9.10318 93.301 9.10318C95.5615 9.10318 97.483 9.94347 99.0653 11.6241C99.8625 12.4643 100.505 13.4603 100.993 14.6118C101.552 15.9189 101.832 17.1949 101.832 18.4398C101.832 19.4512 101.671 20.2837 101.35 20.9373C101.028 21.5753 100.612 21.8943 100.1 21.8943ZM92.1766 17.5294H93.9791C94.7406 17.5294 95.1213 17.0704 95.1213 16.1523C95.1213 15.312 94.9369 14.6273 94.5681 14.0983C94.1992 13.5692 93.7174 13.3046 93.1225 13.3046C92.4562 13.3046 91.9327 13.647 91.552 14.3317C91.1951 14.9697 91.0166 15.6154 91.0166 16.269C91.0166 16.7358 91.0999 17.0626 91.2665 17.2494C91.4449 17.4361 91.7483 17.5294 92.1766 17.5294Z" fill="#A992C5"/>
<path d="M122.319 9.07983C124.389 9.07983 126.144 9.76452 127.584 11.1339C128.345 11.8653 128.875 12.7055 129.172 13.6548C129.482 14.5884 129.636 15.88 129.636 17.5294L129.601 21.0073C129.601 23.4193 129.731 24.9832 129.993 25.699C130.124 26.0413 130.249 26.2592 130.368 26.3525C130.487 26.4459 130.737 26.5315 131.117 26.6093C131.498 26.6871 131.689 27.0139 131.689 27.5896C131.689 28.3366 131.457 29.1146 130.993 29.9238C130.54 30.7329 129.952 31.4099 129.226 31.9545C128.333 32.6392 127.399 32.9815 126.424 32.9815C125.175 32.9815 124.187 32.4213 123.461 31.3009C123.212 30.8963 122.98 30.694 122.765 30.694C122.527 30.694 122.212 30.8886 121.82 31.2776C120.63 32.4135 119.279 32.9815 117.768 32.9815C116.21 32.9815 114.949 32.5458 113.985 31.6744C113.354 31.0986 112.855 30.3517 112.486 29.4336C112.117 28.4999 111.933 27.5274 111.933 26.5159C111.933 24.8976 112.432 23.466 113.432 22.2211C114.99 20.2604 117.322 19.2723 120.427 19.2567C121.118 19.2567 121.552 19.1711 121.73 19C121.909 18.8132 121.998 18.3931 121.998 17.7395C121.998 16.0901 121.867 14.8996 121.605 14.1683C121.344 13.4213 120.915 13.0479 120.32 13.0479C119.963 13.0479 119.642 13.1879 119.357 13.468C119.083 13.7481 118.738 14.2616 118.322 15.0086C117.263 16.9848 116.156 17.9729 115.002 17.9729C114.419 17.9729 113.943 17.7473 113.574 17.296C113.206 16.8448 113.021 16.2534 113.021 15.5221C113.021 14.7752 113.247 14.0282 113.699 13.2813C114.163 12.5344 114.788 11.8808 115.573 11.3206C117.727 9.82676 119.975 9.07983 122.319 9.07983ZM121.123 22.5945C120.6 22.5945 120.142 22.8746 119.749 23.4348C119.369 23.995 119.178 24.6642 119.178 25.4422C119.178 26.1891 119.315 26.796 119.589 27.2628C119.862 27.7141 120.225 27.9398 120.677 27.9398C121.629 27.9398 122.105 26.8894 122.105 24.7887C122.105 23.9328 122.034 23.357 121.891 23.0614C121.76 22.7657 121.504 22.6101 121.123 22.5945Z" fill="#A992C5"/>
<path d="M152.194 13.8415V21.3341C152.194 24.6486 152.23 26.5782 152.301 27.1228C152.384 27.6674 152.682 28.0876 153.193 28.3832C153.634 28.6322 153.925 28.8656 154.068 29.0835C154.223 29.3013 154.3 29.6126 154.3 30.0171C154.3 30.5307 154.157 30.9975 153.872 31.4176C153.598 31.8378 153.229 32.1334 152.765 32.3046C151.909 32.6469 150.463 32.8181 148.428 32.8181C146.132 32.8181 144.52 32.5925 143.592 32.1412C143.164 31.9389 142.813 31.6277 142.539 31.2076C142.266 30.7718 142.129 30.3206 142.129 29.8538C142.129 29.4803 142.2 29.1924 142.343 28.9901C142.498 28.7878 142.825 28.5466 143.324 28.2665C143.788 28.002 144.074 27.2784 144.181 26.0958C144.371 24.0728 144.467 21.1941 144.467 17.4594C144.467 13.6625 144.383 11.2195 144.217 10.1302C144.05 9.04093 143.634 8.23176 142.967 7.70269C142.468 7.32922 142.123 6.9791 141.932 6.65232C141.754 6.30998 141.665 5.89761 141.665 5.41522C141.665 4.65273 141.944 3.99139 142.503 3.4312C143.063 2.85544 143.955 2.32637 145.18 1.84398C146.001 1.5172 147.066 1.20598 148.375 0.910317C149.684 0.614659 150.635 0.466829 151.23 0.466829C152.17 0.466829 152.64 1.22932 152.64 2.75429C152.64 3.25225 152.581 4.39598 152.462 6.18549C152.307 8.97091 152.218 11.5229 152.194 13.8415Z" fill="#A992C5"/>
<path d="M166.4 9.07983C168.577 9.07983 170.487 9.81898 172.128 11.2973C173.306 12.3554 174.252 13.7326 174.966 15.4287C175.704 17.2027 176.073 19.0544 176.073 20.984C176.073 24.3607 174.889 27.2317 172.521 29.597C170.261 31.8533 167.673 32.9815 164.758 32.9815C161.914 32.9815 159.612 31.9234 157.851 29.8071C156.138 27.753 155.282 25.0765 155.282 21.7776C155.282 18.1052 156.328 15.1019 158.422 12.7678C160.612 10.3092 163.271 9.07983 166.4 9.07983ZM164.972 14.4717C164.449 14.4717 164.026 14.7285 163.705 15.242C163.396 15.7399 163.241 16.4091 163.241 17.2494C163.241 18.183 163.372 19.459 163.634 21.0774C163.907 22.6801 164.229 24.104 164.597 25.3488C164.966 26.6248 165.567 27.2628 166.4 27.2628C167.459 27.2628 167.988 26.3837 167.988 24.6253C167.988 23.3181 167.851 21.8321 167.578 20.167C167.316 18.502 166.995 17.1482 166.614 16.1056C166.221 15.0475 165.674 14.5028 164.972 14.4717Z" fill="#A992C5"/>
<path d="M187.441 15.2186V23.1081C187.441 24.0417 187.613 24.8042 187.958 25.3955C188.315 25.9868 188.767 26.2825 189.315 26.2825C189.779 26.2825 190.391 26.0024 191.153 25.4422C191.331 25.3022 191.51 25.2321 191.688 25.2321C191.974 25.2321 192.235 25.4578 192.473 25.909C192.711 26.3603 192.83 26.8505 192.83 27.3796C192.83 28.3443 192.426 29.2702 191.617 30.1572C189.927 32.0401 187.881 32.9815 185.478 32.9815C183.574 32.9815 182.045 32.2813 180.891 30.8808C179.737 29.4647 179.16 27.6052 179.16 25.3022V14.5184C179.16 14.1605 179.124 13.9426 179.053 13.8648C178.993 13.7715 178.827 13.7248 178.553 13.7248H176.715C176.37 13.7248 176.15 13.6548 176.055 13.5147C175.96 13.3591 175.912 13.009 175.912 12.4643V11.4373C175.924 10.9705 176.061 10.6282 176.322 10.4103L184.496 3.68795C184.698 3.5479 184.948 3.47788 185.246 3.47788H186.691C186.989 3.47788 187.185 3.57125 187.28 3.75798C187.387 3.92915 187.441 4.27927 187.441 4.80834V7.95944C187.441 8.42627 187.494 8.72971 187.601 8.86976C187.72 9.00981 187.964 9.07983 188.333 9.07983H191.635C192.075 9.07983 192.36 9.18876 192.491 9.40662C192.622 9.60891 192.688 10.0524 192.688 10.7371V12.1142C192.688 12.8612 192.604 13.3824 192.438 13.6781C192.271 13.9582 191.968 14.0983 191.528 14.0983H188.297C187.964 14.0983 187.738 14.1761 187.619 14.3317C187.5 14.4873 187.441 14.7829 187.441 15.2186Z" fill="#A992C5"/>
<path d="M7.87026 0C9.22659 0 10.5056 0.155609 11.7072 0.466829C13.3253 0.886976 14.1343 1.78173 14.1343 3.1511C14.1343 3.60237 14.0511 3.94471 13.8845 4.17812C13.7298 4.39598 13.3253 4.72276 12.6709 5.15847C12.1237 5.51637 11.7608 6.3022 11.5823 7.51596C11.4157 8.72971 11.3325 11.095 11.3325 14.6118C11.3325 20.5561 11.4455 24.2362 11.6715 25.6523C11.7548 26.1036 11.8798 26.4537 12.0463 26.7026C12.2248 26.9361 12.5282 27.1928 12.9565 27.4729C13.7417 27.9397 14.1343 28.6167 14.1343 29.5036C14.1343 30.7485 13.4086 31.6044 11.9571 32.0712C10.3866 32.5691 8.46514 32.8181 6.1927 32.8181C2.31408 32.8181 0.374774 31.8533 0.374774 29.9238C0.374774 29.2235 0.755497 28.57 1.51694 27.9631C2.09993 27.4963 2.44496 26.8583 2.55203 26.0491C2.77809 24.2751 2.89112 20.5094 2.89112 14.7518C2.89112 10.7682 2.73645 8.2162 2.42711 7.09581C2.26054 6.45781 1.86197 5.88205 1.2314 5.36854C0.7436 4.94839 0.416416 4.59827 0.24985 4.31817C0.0832831 4.03808 0 3.68017 0 3.24447C0 2.57534 0.243901 2.04627 0.731702 1.65724C1.2314 1.25266 2.10588 0.894756 3.35512 0.583536C4.84232 0.194512 6.34737 0 7.87026 0Z" stroke="black" stroke-width="2" mask="url(#path-1-inside-1)"/>
<path d="M34.6399 9.10318C36.7576 9.10318 38.6256 9.79564 40.2436 11.1806C41.7784 12.5033 42.5458 14.1449 42.5458 16.1056C42.5458 17.4594 42.1889 18.5565 41.475 19.3968C40.8088 20.1904 40.0057 20.5872 39.0658 20.5872C38.0783 20.5872 37.3347 20.1204 36.835 19.1867C36.6803 18.891 36.4542 18.1363 36.1568 16.9226C35.8356 15.6154 35.2228 14.9619 34.3186 14.9619C33.6643 14.9619 33.111 15.3354 32.6589 16.0823C32.2187 16.8292 31.9986 17.7473 31.9986 18.8366C31.9986 20.7039 32.5102 22.3611 33.5334 23.8083C34.3662 24.9754 35.4132 25.5589 36.6743 25.5589C37.2692 25.5589 37.7689 25.4967 38.1734 25.3722C38.578 25.2321 39.1074 24.9598 39.7618 24.5552C39.9283 24.4463 40.1128 24.3918 40.315 24.3918C40.7195 24.3918 41.0765 24.6408 41.3858 25.1388C41.6951 25.6367 41.8498 26.2203 41.8498 26.8894C41.8498 27.5896 41.6297 28.3288 41.1895 29.1068C40.7493 29.8693 40.1722 30.5384 39.4584 31.1142C37.9117 32.3591 36.0854 32.9815 33.9795 32.9815C31.5286 32.9815 29.4406 32.0479 27.7155 30.1805C25.5025 27.8153 24.396 24.8042 24.396 21.1474C24.396 17.6306 25.4252 14.7207 27.4834 12.4177C29.4466 10.208 31.832 9.10318 34.6399 9.10318Z" stroke="black" stroke-width="2" mask="url(#path-1-inside-1)"/>
<path d="M53.8961 9.07983C55.9663 9.07983 57.7212 9.76452 59.1608 11.1339C59.9223 11.8653 60.4517 12.7055 60.7491 13.6548C61.0585 14.5884 61.2131 15.88 61.2131 17.5294L61.1774 21.0073C61.1774 23.4193 61.3083 24.9832 61.5701 25.699C61.7009 26.0413 61.8259 26.2592 61.9448 26.3525C62.0638 26.4459 62.3137 26.5315 62.6944 26.6093C63.0751 26.6871 63.2655 27.0139 63.2655 27.5896C63.2655 28.3366 63.0335 29.1146 62.5695 29.9238C62.1174 30.7329 61.5284 31.4099 60.8027 31.9545C59.9104 32.6392 58.9764 32.9815 58.0008 32.9815C56.7515 32.9815 55.764 32.4213 55.0383 31.3009C54.7884 30.8963 54.5564 30.694 54.3423 30.694C54.1043 30.694 53.789 30.8886 53.3964 31.2776C52.2067 32.4135 50.8563 32.9815 49.3453 32.9815C47.7867 32.9815 46.5256 32.5458 45.5619 31.6744C44.9313 31.0986 44.4316 30.3517 44.0628 29.4336C43.6939 28.4999 43.5095 27.5274 43.5095 26.5159C43.5095 24.8976 44.0092 23.466 45.0086 22.2211C46.5672 20.2604 48.8991 19.2723 52.0044 19.2567C52.6945 19.2567 53.1287 19.1711 53.3072 19C53.4857 18.8132 53.5749 18.3931 53.5749 17.7395C53.5749 16.0901 53.444 14.8996 53.1823 14.1683C52.9205 13.4213 52.4922 13.0479 51.8973 13.0479C51.5404 13.0479 51.2192 13.1879 50.9336 13.468C50.66 13.7481 50.3149 14.2616 49.8985 15.0086C48.8396 16.9848 47.7332 17.9729 46.5791 17.9729C45.9961 17.9729 45.5202 17.7473 45.1514 17.296C44.7826 16.8448 44.5981 16.2534 44.5981 15.5221C44.5981 14.7752 44.8242 14.0282 45.2763 13.2813C45.7403 12.5344 46.3649 11.8808 47.1502 11.3206C49.3036 9.82676 51.5523 9.07983 53.8961 9.07983ZM52.7004 22.5945C52.1769 22.5945 51.7189 22.8746 51.3262 23.4348C50.9455 23.995 50.7552 24.6642 50.7552 25.4422C50.7552 26.1891 50.892 26.796 51.1656 27.2628C51.4393 27.7141 51.8021 27.9398 52.2543 27.9398C53.2061 27.9398 53.682 26.8894 53.682 24.7887C53.682 23.9328 53.6106 23.357 53.4678 23.0614C53.3369 22.7657 53.0811 22.6101 52.7004 22.5945Z" stroke="black" stroke-width="2" mask="url(#path-1-inside-1)"/>
<path d="M72.7776 9.24323C73.4082 9.24323 73.7889 9.35993 73.9198 9.59335C74.0625 9.82676 74.1875 10.5737 74.2945 11.8341C74.354 12.5188 74.5384 12.8612 74.8478 12.8612C75.0857 12.8612 75.3118 12.6355 75.5259 12.1842C76.4778 10.2391 77.7211 9.26657 79.2558 9.26657C80.3385 9.26657 81.2249 9.72562 81.915 10.6437C82.2481 11.095 82.5217 11.6785 82.7359 12.3943C82.9501 13.0946 83.0571 13.7715 83.0571 14.425C83.0571 15.1564 82.9263 15.9111 82.6645 16.6892C82.4028 17.4516 82.0637 18.0819 81.6473 18.5798C80.8858 19.529 79.9519 20.0036 78.8454 20.0036C78.2386 20.0036 77.727 19.8636 77.3106 19.5835C76.9061 19.3034 76.3707 18.7354 75.7044 17.8796C75.4546 17.5528 75.2226 17.3894 75.0084 17.3894C74.6753 17.3894 74.4552 17.6384 74.3481 18.1363C74.2529 18.6187 74.2053 19.6457 74.2053 21.2174C74.2053 23.5671 74.2708 25.1699 74.4016 26.0257C74.4849 26.4926 74.5979 26.8194 74.7407 27.0061C74.8954 27.1773 75.2166 27.3562 75.7044 27.5429C76.7752 27.9631 77.3106 28.6945 77.3106 29.737C77.3106 30.375 77.1381 30.9352 76.793 31.4176C76.448 31.8845 75.99 32.1957 75.4189 32.3513C74.2767 32.6625 72.5991 32.8181 70.3862 32.8181C68.2803 32.8181 66.6801 32.5769 65.5855 32.0945C64.6099 31.6588 64.1221 30.9041 64.1221 29.8304C64.1221 29.0212 64.479 28.2976 65.1929 27.6597C65.5379 27.364 65.7759 27.0995 65.9067 26.866C66.0376 26.6171 66.1268 26.2825 66.1744 25.8624C66.3648 24.4463 66.46 21.8243 66.46 17.9963C66.46 17.296 66.4005 16.7981 66.2815 16.5024C66.1625 16.1912 65.9246 15.9422 65.5677 15.7555C64.7229 15.3198 64.3006 14.6896 64.3006 13.8648C64.3006 13.1179 64.5921 12.4799 65.175 11.9508C65.758 11.4062 66.7336 10.8693 68.1018 10.3403C69.9341 9.62447 71.4927 9.25879 72.7776 9.24323Z" stroke="black" stroke-width="2" mask="url(#path-1-inside-1)"/>
<path d="M100.1 21.8943H91.7126C91.3438 21.8943 91.1594 22.1044 91.1594 22.5245C91.1594 23.536 91.5758 24.493 92.4086 25.3955C93.2534 26.2825 94.1576 26.726 95.1213 26.726C95.6924 26.726 96.323 26.5859 97.013 26.3058C97.715 26.0102 98.292 25.6523 98.7441 25.2321C99.1486 24.8587 99.4699 24.6719 99.7078 24.6719C100.017 24.6719 100.321 24.9209 100.618 25.4189C100.915 25.9168 101.064 26.4303 101.064 26.9594C101.064 28.0798 100.529 29.1613 99.458 30.2039C97.5663 32.0556 95.383 32.9815 92.9083 32.9815C90.4098 32.9815 88.3159 32.0323 86.6264 30.1339C85.8055 29.2002 85.1273 28.072 84.5919 26.7493C83.89 24.9909 83.539 23.1392 83.539 21.1941C83.539 18.5798 84.1458 16.2301 85.3593 14.1449C86.4063 12.3399 87.7388 10.9938 89.3569 10.1069C90.5705 9.43774 91.8851 9.10318 93.301 9.10318C95.5615 9.10318 97.483 9.94347 99.0653 11.6241C99.8625 12.4643 100.505 13.4603 100.993 14.6118C101.552 15.9189 101.832 17.1949 101.832 18.4398C101.832 19.4512 101.671 20.2837 101.35 20.9373C101.028 21.5753 100.612 21.8943 100.1 21.8943ZM92.1766 17.5294H93.9791C94.7406 17.5294 95.1213 17.0704 95.1213 16.1523C95.1213 15.312 94.9369 14.6273 94.5681 14.0983C94.1992 13.5692 93.7174 13.3046 93.1225 13.3046C92.4562 13.3046 91.9327 13.647 91.552 14.3317C91.1951 14.9697 91.0166 15.6154 91.0166 16.269C91.0166 16.7358 91.0999 17.0626 91.2665 17.2494C91.4449 17.4361 91.7483 17.5294 92.1766 17.5294Z" stroke="black" stroke-width="2" mask="url(#path-1-inside-1)"/>
<path d="M122.319 9.07983C124.389 9.07983 126.144 9.76452 127.584 11.1339C128.345 11.8653 128.875 12.7055 129.172 13.6548C129.482 14.5884 129.636 15.88 129.636 17.5294L129.601 21.0073C129.601 23.4193 129.731 24.9832 129.993 25.699C130.124 26.0413 130.249 26.2592 130.368 26.3525C130.487 26.4459 130.737 26.5315 131.117 26.6093C131.498 26.6871 131.689 27.0139 131.689 27.5896C131.689 28.3366 131.457 29.1146 130.993 29.9238C130.54 30.7329 129.952 31.4099 129.226 31.9545C128.333 32.6392 127.399 32.9815 126.424 32.9815C125.175 32.9815 124.187 32.4213 123.461 31.3009C123.212 30.8963 122.98 30.694 122.765 30.694C122.527 30.694 122.212 30.8886 121.82 31.2776C120.63 32.4135 119.279 32.9815 117.768 32.9815C116.21 32.9815 114.949 32.5458 113.985 31.6744C113.354 31.0986 112.855 30.3517 112.486 29.4336C112.117 28.4999 111.933 27.5274 111.933 26.5159C111.933 24.8976 112.432 23.466 113.432 22.2211C114.99 20.2604 117.322 19.2723 120.427 19.2567C121.118 19.2567 121.552 19.1711 121.73 19C121.909 18.8132 121.998 18.3931 121.998 17.7395C121.998 16.0901 121.867 14.8996 121.605 14.1683C121.344 13.4213 120.915 13.0479 120.32 13.0479C119.963 13.0479 119.642 13.1879 119.357 13.468C119.083 13.7481 118.738 14.2616 118.322 15.0086C117.263 16.9848 116.156 17.9729 115.002 17.9729C114.419 17.9729 113.943 17.7473 113.574 17.296C113.206 16.8448 113.021 16.2534 113.021 15.5221C113.021 14.7752 113.247 14.0282 113.699 13.2813C114.163 12.5344 114.788 11.8808 115.573 11.3206C117.727 9.82676 119.975 9.07983 122.319 9.07983ZM121.123 22.5945C120.6 22.5945 120.142 22.8746 119.749 23.4348C119.369 23.995 119.178 24.6642 119.178 25.4422C119.178 26.1891 119.315 26.796 119.589 27.2628C119.862 27.7141 120.225 27.9398 120.677 27.9398C121.629 27.9398 122.105 26.8894 122.105 24.7887C122.105 23.9328 122.034 23.357 121.891 23.0614C121.76 22.7657 121.504 22.6101 121.123 22.5945Z" stroke="black" stroke-width="2" mask="url(#path-1-inside-1)"/>
<path d="M152.194 13.8415V21.3341C152.194 24.6486 152.23 26.5782 152.301 27.1228C152.384 27.6674 152.682 28.0876 153.193 28.3832C153.634 28.6322 153.925 28.8656 154.068 29.0835C154.223 29.3013 154.3 29.6126 154.3 30.0171C154.3 30.5307 154.157 30.9975 153.872 31.4176C153.598 31.8378 153.229 32.1334 152.765 32.3046C151.909 32.6469 150.463 32.8181 148.428 32.8181C146.132 32.8181 144.52 32.5925 143.592 32.1412C143.164 31.9389 142.813 31.6277 142.539 31.2076C142.266 30.7718 142.129 30.3206 142.129 29.8538C142.129 29.4803 142.2 29.1924 142.343 28.9901C142.498 28.7878 142.825 28.5466 143.324 28.2665C143.788 28.002 144.074 27.2784 144.181 26.0958C144.371 24.0728 144.467 21.1941 144.467 17.4594C144.467 13.6625 144.383 11.2195 144.217 10.1302C144.05 9.04093 143.634 8.23176 142.967 7.70269C142.468 7.32922 142.123 6.9791 141.932 6.65232C141.754 6.30998 141.665 5.89761 141.665 5.41522C141.665 4.65273 141.944 3.99139 142.503 3.4312C143.063 2.85544 143.955 2.32637 145.18 1.84398C146.001 1.5172 147.066 1.20598 148.375 0.910317C149.684 0.614659 150.635 0.466829 151.23 0.466829C152.17 0.466829 152.64 1.22932 152.64 2.75429C152.64 3.25225 152.581 4.39598 152.462 6.18549C152.307 8.97091 152.218 11.5229 152.194 13.8415Z" stroke="black" stroke-width="2" mask="url(#path-1-inside-1)"/>
<path d="M166.4 9.07983C168.577 9.07983 170.487 9.81898 172.128 11.2973C173.306 12.3554 174.252 13.7326 174.966 15.4287C175.704 17.2027 176.073 19.0544 176.073 20.984C176.073 24.3607 174.889 27.2317 172.521 29.597C170.261 31.8533 167.673 32.9815 164.758 32.9815C161.914 32.9815 159.612 31.9234 157.851 29.8071C156.138 27.753 155.282 25.0765 155.282 21.7776C155.282 18.1052 156.328 15.1019 158.422 12.7678C160.612 10.3092 163.271 9.07983 166.4 9.07983ZM164.972 14.4717C164.449 14.4717 164.026 14.7285 163.705 15.242C163.396 15.7399 163.241 16.4091 163.241 17.2494C163.241 18.183 163.372 19.459 163.634 21.0774C163.907 22.6801 164.229 24.104 164.597 25.3488C164.966 26.6248 165.567 27.2628 166.4 27.2628C167.459 27.2628 167.988 26.3837 167.988 24.6253C167.988 23.3181 167.851 21.8321 167.578 20.167C167.316 18.502 166.995 17.1482 166.614 16.1056C166.221 15.0475 165.674 14.5028 164.972 14.4717Z" stroke="black" stroke-width="2" mask="url(#path-1-inside-1)"/>
<path d="M187.441 15.2186V23.1081C187.441 24.0417 187.613 24.8042 187.958 25.3955C188.315 25.9868 188.767 26.2825 189.315 26.2825C189.779 26.2825 190.391 26.0024 191.153 25.4422C191.331 25.3022 191.51 25.2321 191.688 25.2321C191.974 25.2321 192.235 25.4578 192.473 25.909C192.711 26.3603 192.83 26.8505 192.83 27.3796C192.83 28.3443 192.426 29.2702 191.617 30.1572C189.927 32.0401 187.881 32.9815 185.478 32.9815C183.574 32.9815 182.045 32.2813 180.891 30.8808C179.737 29.4647 179.16 27.6052 179.16 25.3022V14.5184C179.16 14.1605 179.124 13.9426 179.053 13.8648C178.993 13.7715 178.827 13.7248 178.553 13.7248H176.715C176.37 13.7248 176.15 13.6548 176.055 13.5147C175.96 13.3591 175.912 13.009 175.912 12.4643V11.4373C175.924 10.9705 176.061 10.6282 176.322 10.4103L184.496 3.68795C184.698 3.5479 184.948 3.47788 185.246 3.47788H186.691C186.989 3.47788 187.185 3.57125 187.28 3.75798C187.387 3.92915 187.441 4.27927 187.441 4.80834V7.95944C187.441 8.42627 187.494 8.72971 187.601 8.86976C187.72 9.00981 187.964 9.07983 188.333 9.07983H191.635C192.075 9.07983 192.36 9.18876 192.491 9.40662C192.622 9.60891 192.688 10.0524 192.688 10.7371V12.1142C192.688 12.8612 192.604 13.3824 192.438 13.6781C192.271 13.9582 191.968 14.0983 191.528 14.0983H188.297C187.964 14.0983 187.738 14.1761 187.619 14.3317C187.5 14.4873 187.441 14.7829 187.441 15.2186Z" stroke="black" stroke-width="2" mask="url(#path-1-inside-1)"/>
<path d="M197.643 28.557C197.643 26.6944 198.172 25.0921 198.994 23.9683C199.816 22.8454 200.91 22.2195 202.071 22.2195C203.233 22.2195 204.327 22.8454 205.149 23.9683C205.971 25.0921 206.5 26.6944 206.5 28.557C206.5 30.25 205.974 31.8573 205.144 33.0301C204.311 34.207 203.214 34.8948 202.071 34.8948C200.929 34.8948 199.832 34.207 198.999 33.0301C198.168 31.8573 197.643 30.25 197.643 28.557Z" fill="#A992C5" stroke="black"/>
</svg>
